# xmcd
#
# Track frame offsets:
#	150
#	24698
#	48357
#	76091
#	122419
#	139516
#	172554
#
# Disc length: 2654 seconds
#
# Revision: 1
# Processed by: cddbd v1.5.2PL0 Copyright (c) Steve Scherf et al.
# Submitted via: audiograbber 1.83.01
#
DISCID=440a5c07
DTITLE=Joe Bonamassa - Live-from Nowhere in Particular # 1
DYEAR=2007
DGENRE=Blues
TTITLE0=Bridge to better Days 
TTITLE1=Walk in my Shadows 
TTITLE2=So many Roads
TTITLE3=India - Mountain Time 
TTITLE4=Another Kinda Love 
TTITLE5=Sloe Gin
TTITLE6=One of these Days 
EXTD=
EXTT0=
EXTT1=
EXTT2=
EXTT3=
EXTT4=
EXTT5=
EXTT6=
PLAYORDER=
